HIERARCHY
ROOT pelvis
{
  OFFSET 0 100 0
  CHANNELS 6 Xposition Yposition Zposition Zrotation Xrotation Yrotation
  JOINT pelvis_right_femur
  {
    OFFSET -10.78128 -3.44521 -0.5502486
    CHANNELS 3 Zrotation Xrotation Yrotation
    JOINT right_femur_tibia
    {
      OFFSET -0.8047443 -44.0398 -0.1307829
      CHANNELS 3 Zrotation Xrotation Yrotation
      JOINT right_tibia_foot
      {
        OFFSET 3.006224 -47.83518 -5
        CHANNELS 3 Zrotation Xrotation Yrotation
        End Site
        {
          OFFSET 0 -5 15
        }
      }
    }
  }
  JOINT pelvis_left_femur
  {
    OFFSET 10.78128 -3.44521 -0.5502486
    CHANNELS 3 Zrotation Xrotation Yrotation
    JOINT left_femur_tibia
    {
      OFFSET 0.8047443 -44.0398 -0.1307829
      CHANNELS 3 Zrotation Xrotation Yrotation
      JOINT left_tibia_foot
      {
        OFFSET -4.370144 -48.10324 -4.275266
        CHANNELS 3 Zrotation Xrotation Yrotation
        End Site
        {
          OFFSET 0 -5 15
        }
      }
    }
  }
  JOINT pelvis_spine1
  {
    OFFSET 0 6.468898 -3.129235
    CHANNELS 3 Zrotation Xrotation Yrotation
    JOINT spine1
    {
      OFFSET 0 23.15396 4.99043
      CHANNELS 3 Zrotation Xrotation Yrotation
      JOINT spine2
      {
        OFFSET 0 20.79997 -5.064912
        CHANNELS 3 Zrotation Xrotation Yrotation
        JOINT neck
        {
          OFFSET 0 14.38658 9.616178
          CHANNELS 3 Zrotation Xrotation Yrotation
          End Site
          {
            OFFSET 0 20 0
          }
        }
      }
      JOINT right_manubrium
      {
        OFFSET -5.722621 16.35077 3.967754
        CHANNELS 3 Zrotation Xrotation Yrotation
        JOINT right_clavicle
        {
          OFFSET -13.16364 1.694482 -4.693211
          CHANNELS 3 Zrotation Xrotation Yrotation
          JOINT right_humerus
          {
            OFFSET -28.5034 -0.3100689 -2.792744
            CHANNELS 3 Zrotation Xrotation Yrotation
            JOINT right_radius
            {
              OFFSET -25.15693 0.02248979 -1.271978
              CHANNELS 3 Zrotation Xrotation Yrotation
              End Site
              {
                OFFSET -15 0 0
              }
            }
          }
        }
      }
      JOINT left_manubrium
      {
        OFFSET 5.722621 16.35077 3.967754
        CHANNELS 3 Zrotation Xrotation Yrotation
        JOINT left_clavicle
        {
          OFFSET 13.16364 1.694482 -4.693211
          CHANNELS 3 Zrotation Xrotation Yrotation
          JOINT left_humerus
          {
            OFFSET 29.39168 -1.063119 -2.237045
            CHANNELS 3 Zrotation Xrotation Yrotation
            JOINT left_radius
            {
              OFFSET 24.59957 -0.9528479 0.9047498
              CHANNELS 3 Zrotation Xrotation Yrotation
              End Site
              {
                OFFSET 15 -0 -0
              }
            }
          }
        }
      }
    }
  }
}
MOTION
Frames: 17
Frame Time: 0.0416666666667
127.1305 83.05477 75.36368 -6.355892 -10.74416 -35.25949 1.197827 -12.78248 2.898964 -0 39.00781 -0 -0.2476573 -16.2816 -11.0346 -4.591392 14.27545 -11.4169 -0 28.52442 -0 -10.70805 -16.54988 14.59649 -1.478912 1.87028 1.355232 -0.9396073 5.046819 -3.998521 4.363592 26.34706 4.168872 -0.532129 -13.24726 10.85108 -1.819157 -10.81167 6.59902 90.93538 18.57437 -14.13358 -0 0 10.61963 -15.65298 11.02127 6.003731 5.518741 -15.38152 -3.262596 -82.14373 28.38368 1.018725 0 0 -14.90977 1.553488 12.45721 10.03674
123.3859 83.09577 80.17407 -6.216406 -10.82483 -34.51405 1.197827 -12.78248 2.898964 -0 39.00781 -0 -0.2476573 -16.2816 -11.0346 -4.591392 14.27545 -11.4169 -0 28.52442 -0 -10.70805 -16.54988 14.59649 -1.478912 1.87028 1.355232 -0.9396073 5.046819 -3.998521 4.363592 26.34706 4.168872 -0.532129 -13.24726 10.85108 -1.819157 -10.81167 6.59902 90.93538 18.57437 -14.13358 -0 0 10.61963 -15.65298 11.02127 6.003731 5.518741 -15.38152 -3.262596 -82.14373 28.38368 1.018725 0 0 -14.90977 1.553488 12.45721 10.03674
119.7034 83.13676 85.0322 -6.075826 -10.90371 -33.76821 1.197827 -12.78248 2.898964 -0 39.00781 -0 -0.2476573 -16.2816 -11.0346 -4.591392 14.27545 -11.4169 -0 28.52442 -0 -10.70805 -16.54988 14.59649 -1.478912 1.87028 1.355232 -0.9396073 5.046819 -3.998521 4.363592 26.34706 4.168872 -0.532129 -13.24726 10.85108 -1.819157 -10.81167 6.59902 90.93538 18.57437 -14.13358 -0 0 10.61963 -15.65298 11.02127 6.003731 5.518741 -15.38152 -3.262596 -82.14373 28.38368 1.018725 0 0 -14.90977 1.553488 12.45721 10.03674
116.0838 83.17776 89.93728 -5.934176 -10.98078 -33.02198 1.197827 -12.78248 2.898964 -0 39.00781 -0 -0.2476573 -16.2816 -11.0346 -4.591392 14.27545 -11.4169 -0 28.52442 -0 -10.70805 -16.54988 14.59649 -1.478912 1.87028 1.355232 -0.9396073 5.046819 -3.998521 4.363592 26.34706 4.168872 -0.532129 -13.24726 10.85108 -1.819157 -10.81167 6.59902 90.93538 18.57437 -14.13358 -0 0 10.61963 -15.65298 11.02127 6.003731 5.518741 -15.38152 -3.262596 -82.14373 28.38368 1.018725 0 0 -14.90977 1.553488 12.45721 10.03674
112.5275 83.21875 94.88849 -5.791477 -11.05603 -32.27536 1.197827 -12.78248 2.898964 -0 39.00781 -0 -0.2476573 -16.2816 -11.0346 -4.591392 14.27545 -11.4169 -0 28.52442 -0 -10.70805 -16.54988 14.59649 -1.478912 1.87028 1.355232 -0.9396073 5.046819 -3.998521 4.363592 26.34706 4.168872 -0.532129 -13.24726 10.85108 -1.819157 -10.81167 6.59902 90.93538 18.57437 -14.13358 -0 0 10.61963 -15.65298 11.02127 6.003731 5.518741 -15.38152 -3.262596 -82.14373 28.38368 1.018725 0 0 -14.90977 1.553488 12.45721 10.03674
109.0351 83.25975 99.88502 -5.647755 -11.12945 -31.52837 1.197827 -12.78248 2.898964 -0 39.00781 -0 -0.2476573 -16.2816 -11.0346 -4.591392 14.27545 -11.4169 -0 28.52442 -0 -10.70805 -16.54988 14.59649 -1.478912 1.87028 1.355232 -0.9396073 5.046819 -3.998521 4.363592 26.34706 4.168872 -0.532129 -13.24726 10.85108 -1.819157 -10.81167 6.59902 90.93538 18.57437 -14.13358 -0 0 10.61963 -15.65298 11.02127 6.003731 5.518741 -15.38152 -3.262596 -82.14373 28.38368 1.018725 0 0 -14.90977 1.553488 12.45721 10.03674
105.6073 83.30074 104.926 -5.503034 -11.20103 -30.781 1.197827 -12.78248 2.898964 -0 39.00781 -0 -0.2476573 -16.2816 -11.0346 -4.591392 14.27545 -11.4169 -0 28.52442 -0 -10.70805 -16.54988 14.59649 -1.478912 1.87028 1.355232 -0.9396073 5.046819 -3.998521 4.363592 26.34706 4.168872 -0.532129 -13.24726 10.85108 -1.819157 -10.81167 6.59902 90.93538 18.57437 -14.13358 -0 0 10.61963 -15.65298 11.02127 6.003731 5.518741 -15.38152 -3.262596 -82.14373 28.38368 1.018725 0 0 -14.90977 1.553488 12.45721 10.03674
102.2446 83.34174 110.0107 -5.357338 -11.27075 -30.03327 1.197827 -12.78248 2.898964 -0 39.00781 -0 -0.2476573 -16.2816 -11.0346 -4.591392 14.27545 -11.4169 -0 28.52442 -0 -10.70805 -16.54988 14.59649 -1.478912 1.87028 1.355232 -0.9396073 5.046819 -3.998521 4.363592 26.34706 4.168872 -0.532129 -13.24726 10.85108 -1.819157 -10.81167 6.59902 90.93538 18.57437 -14.13358 -0 0 10.61963 -15.65298 11.02127 6.003731 5.518741 -15.38152 -3.262596 -82.14373 28.38368 1.018725 0 0 -14.90977 1.553488 12.45721 10.03674
98.94749 83.38273 115.1382 -5.210691 -11.33859 -29.28518 1.197827 -12.78248 2.898964 -0 39.00781 -0 -0.2476573 -16.2816 -11.0346 -4.591392 14.27545 -11.4169 -0 28.52442 -0 -10.70805 -16.54988 14.59649 -1.478912 1.87028 1.355232 -0.9396073 5.046819 -3.998521 4.363592 26.34706 4.168872 -0.532129 -13.24726 10.85108 -1.819157 -10.81167 6.59902 90.93538 18.57437 -14.13358 -0 0 10.61963 -15.65298 11.02127 6.003731 5.518741 -15.38152 -3.262596 -82.14373 28.38368 1.018725 0 0 -14.90977 1.553488 12.45721 10.03674
95.71662 83.42373 120.3077 -5.063118 -11.40455 -28.53674 1.197827 -12.78248 2.898964 -0 39.00781 -0 -0.2476573 -16.2816 -11.0346 -4.591392 14.27545 -11.4169 -0 28.52442 -0 -10.70805 -16.54988 14.59649 -1.478912 1.87028 1.355232 -0.9396073 5.046819 -3.998521 4.363592 26.34706 4.168872 -0.532129 -13.24726 10.85108 -1.819157 -10.81167 6.59902 90.93538 18.57437 -14.13358 -0 0 10.61963 -15.65298 11.02127 6.003731 5.518741 -15.38152 -3.262596 -82.14373 28.38368 1.018725 0 0 -14.90977 1.553488 12.45721 10.03674
92.55248 83.46472 125.5183 -4.914645 -11.46862 -27.78796 1.197827 -12.78248 2.898964 -0 39.00781 -0 -0.2476573 -16.2816 -11.0346 -4.591392 14.27545 -11.4169 -0 28.52442 -0 -10.70805 -16.54988 14.59649 -1.478912 1.87028 1.355232 -0.9396073 5.046819 -3.998521 4.363592 26.34706 4.168872 -0.532129 -13.24726 10.85108 -1.819157 -10.81167 6.59902 90.93538 18.57437 -14.13358 -0 0 10.61963 -15.65298 11.02127 6.003731 5.518741 -15.38152 -3.262596 -82.14373 28.38368 1.018725 0 0 -14.90977 1.553488 12.45721 10.03674
89.4556 83.50572 130.7691 -4.765297 -11.53078 -27.03885 1.197827 -12.78248 2.898964 -0 39.00781 -0 -0.2476573 -16.2816 -11.0346 -4.591392 14.27545 -11.4169 -0 28.52442 -0 -10.70805 -16.54988 14.59649 -1.478912 1.87028 1.355232 -0.9396073 5.046819 -3.998521 4.363592 26.34706 4.168872 -0.532129 -13.24726 10.85108 -1.819157 -10.81167 6.59902 90.93538 18.57437 -14.13358 -0 0 10.61963 -15.65298 11.02127 6.003731 5.518741 -15.38152 -3.262596 -82.14373 28.38368 1.018725 0 0 -14.90977 1.553488 12.45721 10.03674
86.42649 83.54671 136.0593 -4.6151 -11.59102 -26.2894 1.197827 -12.78248 2.898964 -0 39.00781 -0 -0.2476573 -16.2816 -11.0346 -4.591392 14.27545 -11.4169 -0 28.52442 -0 -10.70805 -16.54988 14.59649 -1.478912 1.87028 1.355232 -0.9396073 5.046819 -3.998521 4.363592 26.34706 4.168872 -0.532129 -13.24726 10.85108 -1.819157 -10.81167 6.59902 90.93538 18.57437 -14.13358 -0 0 10.61963 -15.65298 11.02127 6.003731 5.518741 -15.38152 -3.262596 -82.14373 28.38368 1.018725 0 0 -14.90977 1.553488 12.45721 10.03674
83.46565 83.58771 141.388 -4.464079 -11.64933 -25.53964 1.197827 -12.78248 2.898964 -0 39.00781 -0 -0.2476573 -16.2816 -11.0346 -4.591392 14.27545 -11.4169 -0 28.52442 -0 -10.70805 -16.54988 14.59649 -1.478912 1.87028 1.355232 -0.9396073 5.046819 -3.998521 4.363592 26.34706 4.168872 -0.532129 -13.24726 10.85108 -1.819157 -10.81167 6.59902 90.93538 18.57437 -14.13358 -0 0 10.61963 -15.65298 11.02127 6.003731 5.518741 -15.38152 -3.262596 -82.14373 28.38368 1.018725 0 0 -14.90977 1.553488 12.45721 10.03674
80.57357 83.6287 146.7544 -4.31226 -11.7057 -24.78957 1.197827 -12.78248 2.898964 -0 39.00781 -0 -0.2476573 -16.2816 -11.0346 -4.591392 14.27545 -11.4169 -0 28.52442 -0 -10.70805 -16.54988 14.59649 -1.478912 1.87028 1.355232 -0.9396073 5.046819 -3.998521 4.363592 26.34706 4.168872 -0.532129 -13.24726 10.85108 -1.819157 -10.81167 6.59902 90.93538 18.57437 -14.13358 -0 0 10.61963 -15.65298 11.02127 6.003731 5.518741 -15.38152 -3.262596 -82.14373 28.38368 1.018725 0 0 -14.90977 1.553488 12.45721 10.03674
77.75073 83.6697 152.1575 -4.15967 -11.76012 -24.0392 1.197827 -12.78248 2.898964 -0 39.00781 -0 -0.2476573 -16.2816 -11.0346 -4.591392 14.27545 -11.4169 -0 28.52442 -0 -10.70805 -16.54988 14.59649 -1.478912 1.87028 1.355232 -0.9396073 5.046819 -3.998521 4.363592 26.34706 4.168872 -0.532129 -13.24726 10.85108 -1.819157 -10.81167 6.59902 90.93538 18.57437 -14.13358 -0 0 10.61963 -15.65298 11.02127 6.003731 5.518741 -15.38152 -3.262596 -82.14373 28.38368 1.018725 0 0 -14.90977 1.553488 12.45721 10.03674
74.99759 83.71069 157.5964 -4.006336 -11.81257 -23.28854 1.197827 -12.78248 2.898964 -0 39.00781 -0 -0.2476573 -16.2816 -11.0346 -4.591392 14.27545 -11.4169 -0 28.52442 -0 -10.70805 -16.54988 14.59649 -1.478912 1.87028 1.355232 -0.9396073 5.046819 -3.998521 4.363592 26.34706 4.168872 -0.532129 -13.24726 10.85108 -1.819157 -10.81167 6.59902 90.93538 18.57437 -14.13358 -0 0 10.61963 -15.65298 11.02127 6.003731 5.518741 -15.38152 -3.262596 -82.14373 28.38368 1.018725 0 0 -14.90977 1.553488 12.45721 10.03674
